<?xml version="1.0" encoding="UTF-8" standalone="no"?>
<!-- Generator: Adobe Illustrator 21.0.0, SVG Export Plug-In . SVG Version: 6.00 Build 0)  -->

<svg
   version="1.1"
   id="Layer_1"
   x="0px"
   y="0px"
   viewBox="0 0 168 67"
   xml:space="preserve"
   sodipodi:docname="zabbix_certified_trainer.svg"
   width="168"
   height="67"
   inkscape:version="1.2.1 (9c6d41e410, 2022-07-14)"
   xmlns:inkscape="http://www.inkscape.org/namespaces/inkscape"
   xmlns:sodipodi="http://sodipodi.sourceforge.net/DTD/sodipodi-0.dtd"
   xmlns:xlink="http://www.w3.org/1999/xlink"
   xmlns="http://www.w3.org/2000/svg"
   xmlns:svg="http://www.w3.org/2000/svg"
   xmlns:rdf="http://www.w3.org/1999/02/22-rdf-syntax-ns#"
   xmlns:cc="http://creativecommons.org/ns#"
   xmlns:dc="http://purl.org/dc/elements/1.1/"><metadata
   id="metadata5655"><rdf:RDF><cc:Work
       rdf:about=""><dc:format>image/svg+xml</dc:format><dc:type
         rdf:resource="http://purl.org/dc/dcmitype/StillImage" /></cc:Work></rdf:RDF></metadata><defs
   id="defs5653" /><sodipodi:namedview
   pagecolor="#ffffff"
   bordercolor="#666666"
   borderopacity="1"
   objecttolerance="10"
   gridtolerance="10"
   guidetolerance="10"
   inkscape:pageopacity="0"
   inkscape:pageshadow="2"
   inkscape:window-width="1787"
   inkscape:window-height="925"
   id="namedview5651"
   showgrid="false"
   inkscape:zoom="3.4166667"
   inkscape:cx="164.04878"
   inkscape:cy="58.536585"
   inkscape:window-x="57"
   inkscape:window-y="0"
   inkscape:window-maximized="0"
   inkscape:current-layer="Layer_1"
   inkscape:showpageshadow="2"
   inkscape:pagecheckerboard="0"
   inkscape:deskcolor="#d1d1d1" /><style
   type="text/css"
   id="style5624">
	.st0{clip-path:url(#SVGID_2_);fill:#D40000;}
	.st1{clip-path:url(#SVGID_2_);fill:#FFFFFF;}
</style><g
   id="g5648"
   transform="translate(0,-0.02439039)"
   inkscape:export-xdpi="45.709999"
   inkscape:export-ydpi="45.709999"><g
     id="g5646"><defs
       id="defs5627"><rect
         id="SVGID_1_"
         y="0"
         width="168"
         height="44"
         x="0" /></defs><clipPath
       id="SVGID_2_"><use
         xlink:href="#SVGID_1_"
         style="overflow:visible"
         id="use5629"
         x="0"
         y="0"
         width="100%"
         height="100%" /></clipPath><rect
       x="0"
       y="0"
       class="st0"
       width="168"
       height="44"
       clip-path="url(#SVGID_2_)"
       id="rect5632"
       style="fill:#d40000" /><polygon
       class="st1"
       points="11.9,33.8 32,33.8 32,37.3 6.7,37.3 6.7,34.1 26.3,10.2 7.2,10.2 7.2,6.7 31.5,6.7 31.5,9.9 "
       clip-path="url(#SVGID_2_)"
       id="polygon5634"
       style="fill:#ffffff" /><path
       class="st1"
       d="M 48.4,10.8 42.7,26 H 54.1 Z M 46,6.7 h 4.7 l 11.8,30.6 h -4.3 l -2.8,-7.8 h -14 l -2.8,7.8 h -4.4 z"
       clip-path="url(#SVGID_2_)"
       id="path5636"
       inkscape:connector-curvature="0"
       style="fill:#ffffff" /><path
       class="st1"
       d="m 71.2,22.7 v 11.2 h 6.7 c 2.3,0 3.9,-0.5 5,-1.4 1.1,-0.9 1.6,-2.3 1.6,-4.2 0,-1.9 -0.5,-3.3 -1.6,-4.2 -1.1,-0.9 -2.8,-1.4 -5,-1.4 z m 0,-12.6 v 9.2 h 6.2 c 2,0 3.6,-0.4 4.6,-1.1 1,-0.8 1.5,-1.9 1.5,-3.5 C 83.5,13.2 83,12 82,11.2 81,10.4 79.5,10.1 77.4,10.1 Z M 67,6.7 h 10.7 c 3.2,0 5.6,0.7 7.4,2 1.7,1.3 2.6,3.2 2.6,5.6 0,1.9 -0.4,3.4 -1.3,4.5 -0.9,1.1 -2.2,1.8 -3.9,2.1 2.1,0.4 3.7,1.3 4.8,2.7 1.1,1.4 1.7,3.1 1.7,5.2 0,2.7 -0.9,4.8 -2.8,6.3 -1.9,1.5 -4.5,2.2 -8,2.2 H 67 Z"
       clip-path="url(#SVGID_2_)"
       id="path5638"
       inkscape:connector-curvature="0"
       style="fill:#ffffff" /><path
       class="st1"
       d="m 99.9,22.7 v 11.2 h 6.7 c 2.2,0 3.9,-0.5 5,-1.4 1.1,-0.9 1.6,-2.3 1.6,-4.2 0,-1.9 -0.5,-3.3 -1.6,-4.2 -1.1,-0.9 -2.8,-1.4 -5,-1.4 z m 0,-12.6 v 9.2 h 6.2 c 2,0 3.6,-0.4 4.6,-1.1 1,-0.8 1.5,-1.9 1.5,-3.5 0,-1.5 -0.5,-2.7 -1.5,-3.5 -1,-0.8 -2.5,-1.1 -4.6,-1.1 z M 95.7,6.7 h 10.7 c 3.2,0 5.6,0.7 7.4,2 1.7,1.3 2.6,3.2 2.6,5.6 0,1.9 -0.4,3.4 -1.3,4.5 -0.9,1.1 -2.2,1.8 -3.9,2.1 2.1,0.4 3.7,1.3 4.8,2.7 1.1,1.4 1.7,3.1 1.7,5.2 0,2.7 -0.9,4.8 -2.8,6.3 -1.9,1.5 -4.5,2.2 -8,2.2 H 95.7 Z"
       clip-path="url(#SVGID_2_)"
       id="path5640"
       inkscape:connector-curvature="0"
       style="fill:#ffffff" /><polygon
       class="st1"
       points="150.5,21 161.3,37.3 156.7,37.3 148.2,24.5 139.7,37.3 135.2,37.3 146,21.1 136.4,6.7 141,6.7 148.3,17.7 155.7,6.7 160.1,6.7 "
       clip-path="url(#SVGID_2_)"
       id="polygon5642"
       style="fill:#ffffff" /><rect
       x="124.3"
       y="6.6999998"
       class="st1"
       width="4.1999998"
       height="30.6"
       clip-path="url(#SVGID_2_)"
       id="rect5644"
       style="fill:#ffffff" /></g></g><g
   aria-label="CERTIFIED TRAINER"
   id="text6202"
   style="font-size:16.8471px;line-height:1.25;letter-spacing:0px;word-spacing:0px;stroke-width:0.421178"
   transform="matrix(1.0527735,0,0,1,-0.16153687,0)"><path
     d="m 8.8226566,51.001442 q -1.9374164,0 -3.049325,1.297226 -1.1119085,1.297227 -1.1119085,3.554738 0,2.240664 1.0276731,3.554738 1.0445201,1.297227 3.1167133,1.297227 0.7749666,0 1.4825445,-0.134777 0.707578,-0.134777 1.39831,-0.336942 v 1.314074 q -0.673884,0.252706 -1.39831,0.370636 -0.7075779,0.11793 -1.7015568,0.11793 -1.8363338,0 -3.066172,-0.75812 -1.2298383,-0.758119 -1.853181,-2.156428 -0.6064955,-1.39831 -0.6064955,-3.285185 0,-1.819487 0.6570368,-3.200949 0.673884,-1.398309 1.9711107,-2.173275 1.2972266,-0.791814 3.1504075,-0.791814 1.9037223,0 3.3188783,0.707578 l -0.606495,1.28038 Q 10.995932,51.405772 10.305201,51.203607 9.6313174,51.001442 8.8226566,51.001442 Z"
     id="path8763" /><path
     d="M 21.036803,61.867821 H 14.314811 V 49.838992 h 6.721992 v 1.330921 H 15.83105 v 3.756903 h 4.902506 V 56.24089 H 15.83105 v 4.29601 h 5.205753 z"
     id="path8765" /><path
     d="m 27.000674,49.838992 q 2.240664,0 3.302031,0.859202 1.078215,0.842355 1.078215,2.560759 0,0.960285 -0.35379,1.600474 -0.353789,0.64019 -0.909743,1.027673 -0.539107,0.387484 -1.145603,0.589649 l 3.302032,5.391072 H 30.50487 l -2.914548,-4.969895 h -2.392288 v 4.969895 H 23.681795 V 49.838992 Z m -0.08424,1.314074 H 25.19803 v 4.464481 h 1.80264 q 1.465697,0 2.139581,-0.572801 0.673884,-0.589649 0.673884,-1.718405 0,-1.179297 -0.707578,-1.667862 -0.707578,-0.505413 -2.190123,-0.505413 z"
     id="path8767" /><path
     d="M 37.968129,61.867821 H 36.45189 V 51.169913 h -3.756903 v -1.330921 h 9.013198 v 1.330921 h -3.740056 z"
     id="path8769" /><path
     d="m 46.913937,61.867821 h -4.346552 v -0.876049 l 1.415157,-0.320095 v -9.619694 l -1.415157,-0.336942 v -0.876049 h 4.346552 v 0.876049 l -1.415156,0.336942 v 9.619694 l 1.415156,0.320095 z"
     id="path8771" /><path
     d="M 50.755087,61.867821 H 49.238848 V 49.838992 h 6.721992 v 1.330921 h -5.205753 v 4.262316 h 4.885658 v 1.330921 h -4.885658 z"
     id="path8773" /><path
     d="m 61.368744,61.867821 h -4.346551 v -0.876049 l 1.415156,-0.320095 v -9.619694 l -1.415156,-0.336942 v -0.876049 h 4.346551 v 0.876049 l -1.415156,0.336942 v 9.619694 l 1.415156,0.320095 z"
     id="path8775" /><path
     d="M 70.415648,61.867821 H 63.693655 V 49.838992 h 6.721993 v 1.330921 h -5.205754 v 3.756903 H 70.1124 v 1.314074 h -4.902506 v 4.29601 h 5.205754 z"
     id="path8777" /><path
     d="m 82.697181,55.735477 q 0,3.049325 -1.667863,4.599258 -1.651015,1.533086 -4.616105,1.533086 H 73.06064 V 49.838992 h 3.706362 q 1.80264,0 3.133561,0.673884 1.347768,0.673884 2.072193,1.987958 0.724425,1.314073 0.724425,3.234643 z m -1.600474,0.05054 q 0,-2.409135 -1.196144,-3.521044 -1.179297,-1.128756 -3.352573,-1.128756 h -1.971111 v 9.434376 h 1.634169 q 4.885659,0 4.885659,-4.784576 z"
     id="path8779" /><path
     d="M 93.546704,61.867821 H 92.030465 V 51.169913 h -3.756903 v -1.330921 h 9.013198 v 1.330921 h -3.740056 z"
     id="path8781" /><path
     d="m 102.42513,49.838992 q 2.24066,0 3.30203,0.859202 1.07821,0.842355 1.07821,2.560759 0,0.960285 -0.35379,1.600474 -0.35378,0.64019 -0.90974,1.027673 -0.53911,0.387484 -1.1456,0.589649 l 3.30203,5.391072 h -1.76895 l -2.91454,-4.969895 h -2.39229 v 4.969895 H 99.106249 V 49.838992 Z m -0.0842,1.314074 h -1.7184 v 4.464481 h 1.80264 q 1.4657,0 2.13958,-0.572801 0.67388,-0.589649 0.67388,-1.718405 0,-1.179297 -0.70758,-1.667862 -0.70757,-0.505413 -2.19012,-0.505413 z"
     id="path8783" /><path
     d="m 117.13264,61.867821 -1.44885,-3.723209 h -4.76773 l -1.432,3.723209 h -1.53309 l 4.70034,-12.07937 h 1.36462 l 4.68349,12.07937 z m -1.90372,-5.070977 -1.34777,-3.638974 q -0.0505,-0.134776 -0.16847,-0.488565 -0.11793,-0.35379 -0.23586,-0.724426 -0.10108,-0.387483 -0.16847,-0.589648 -0.13478,0.52226 -0.2864,1.027673 -0.13478,0.488566 -0.23586,0.774966 l -1.36462,3.638974 z"
     id="path8785" /><path
     d="m 123.7367,61.867821 h -4.34655 v -0.876049 l 1.41516,-0.320095 v -9.619694 l -1.41516,-0.336942 v -0.876049 h 4.34655 v 0.876049 l -1.41515,0.336942 v 9.619694 l 1.41515,0.320095 z"
     id="path8787" /><path
     d="m 135.59707,61.867821 h -1.76895 l -6.43559,-9.99033 h -0.0674 q 0.0337,0.589648 0.0842,1.465697 0.0505,0.87605 0.0505,1.80264 v 6.721993 h -1.39831 V 49.838992 h 1.7521 l 6.41874,9.956636 h 0.0674 q -0.0168,-0.269554 -0.0505,-0.808661 -0.0169,-0.539107 -0.0505,-1.16245 -0.0169,-0.64019 -0.0169,-1.196144 v -6.789381 h 1.41516 z"
     id="path8789" /><path
     d="m 145.5874,61.867821 h -6.72199 V 49.838992 h 6.72199 v 1.330921 h -5.20575 v 3.756903 h 4.90251 v 1.314074 h -4.90251 v 4.29601 h 5.20575 z"
     id="path8791" /><path
     d="m 151.55128,49.838992 q 2.24066,0 3.30203,0.859202 1.07822,0.842355 1.07822,2.560759 0,0.960285 -0.35379,1.600474 -0.35379,0.64019 -0.90975,1.027673 -0.5391,0.387484 -1.1456,0.589649 l 3.30203,5.391072 h -1.76894 l -2.91455,-4.969895 h -2.39229 v 4.969895 H 148.2324 V 49.838992 Z m -0.0842,1.314074 h -1.7184 v 4.464481 h 1.80264 q 1.4657,0 2.13958,-0.572801 0.67389,-0.589649 0.67389,-1.718405 0,-1.179297 -0.70758,-1.667862 -0.70758,-0.505413 -2.19013,-0.505413 z"
     id="path8793" /></g>
</svg>
