<?xml version="1.0" encoding="UTF-8" standalone="no"?>
<!-- Generator: Adobe Illustrator 21.0.0, SVG Export Plug-In . SVG Version: 6.00 Build 0)  -->

<svg
   version="1.1"
   id="Layer_1"
   x="0px"
   y="0px"
   viewBox="0 0 168 67"
   xml:space="preserve"
   sodipodi:docname="zabbix_premium_partner.svg"
   width="168"
   height="67"
   inkscape:version="1.2.1 (9c6d41e410, 2022-07-14)"
   xmlns:inkscape="http://www.inkscape.org/namespaces/inkscape"
   xmlns:sodipodi="http://sodipodi.sourceforge.net/DTD/sodipodi-0.dtd"
   xmlns:xlink="http://www.w3.org/1999/xlink"
   xmlns="http://www.w3.org/2000/svg"
   xmlns:svg="http://www.w3.org/2000/svg"
   xmlns:rdf="http://www.w3.org/1999/02/22-rdf-syntax-ns#"
   xmlns:cc="http://creativecommons.org/ns#"
   xmlns:dc="http://purl.org/dc/elements/1.1/"><metadata
   id="metadata5655"><rdf:RDF><cc:Work
       rdf:about=""><dc:format>image/svg+xml</dc:format><dc:type
         rdf:resource="http://purl.org/dc/dcmitype/StillImage" /></cc:Work></rdf:RDF></metadata><defs
   id="defs5653" /><sodipodi:namedview
   pagecolor="#ffffff"
   bordercolor="#666666"
   borderopacity="1"
   objecttolerance="10"
   gridtolerance="10"
   guidetolerance="10"
   inkscape:pageopacity="0"
   inkscape:pageshadow="2"
   inkscape:window-width="1787"
   inkscape:window-height="925"
   id="namedview5651"
   showgrid="false"
   inkscape:zoom="3.4166667"
   inkscape:cx="164.04878"
   inkscape:cy="58.536585"
   inkscape:window-x="57"
   inkscape:window-y="0"
   inkscape:window-maximized="0"
   inkscape:current-layer="Layer_1"
   inkscape:showpageshadow="2"
   inkscape:pagecheckerboard="0"
   inkscape:deskcolor="#d1d1d1" /><style
   type="text/css"
   id="style5624">
	.st0{clip-path:url(#SVGID_2_);fill:#D40000;}
	.st1{clip-path:url(#SVGID_2_);fill:#FFFFFF;}
</style><g
   id="g5648"
   transform="translate(0,-0.02439039)"
   inkscape:export-xdpi="45.709999"
   inkscape:export-ydpi="45.709999"><g
     id="g5646"><defs
       id="defs5627"><rect
         id="SVGID_1_"
         y="0"
         width="168"
         height="44"
         x="0" /></defs><clipPath
       id="SVGID_2_"><use
         xlink:href="#SVGID_1_"
         style="overflow:visible"
         id="use5629"
         x="0"
         y="0"
         width="100%"
         height="100%" /></clipPath><rect
       x="0"
       y="0"
       class="st0"
       width="168"
       height="44"
       clip-path="url(#SVGID_2_)"
       id="rect5632"
       style="fill:#d40000" /><polygon
       class="st1"
       points="11.9,33.8 32,33.8 32,37.3 6.7,37.3 6.7,34.1 26.3,10.2 7.2,10.2 7.2,6.7 31.5,6.7 31.5,9.9 "
       clip-path="url(#SVGID_2_)"
       id="polygon5634"
       style="fill:#ffffff" /><path
       class="st1"
       d="M 48.4,10.8 42.7,26 H 54.1 Z M 46,6.7 h 4.7 l 11.8,30.6 h -4.3 l -2.8,-7.8 h -14 l -2.8,7.8 h -4.4 z"
       clip-path="url(#SVGID_2_)"
       id="path5636"
       inkscape:connector-curvature="0"
       style="fill:#ffffff" /><path
       class="st1"
       d="m 71.2,22.7 v 11.2 h 6.7 c 2.3,0 3.9,-0.5 5,-1.4 1.1,-0.9 1.6,-2.3 1.6,-4.2 0,-1.9 -0.5,-3.3 -1.6,-4.2 -1.1,-0.9 -2.8,-1.4 -5,-1.4 z m 0,-12.6 v 9.2 h 6.2 c 2,0 3.6,-0.4 4.6,-1.1 1,-0.8 1.5,-1.9 1.5,-3.5 C 83.5,13.2 83,12 82,11.2 81,10.4 79.5,10.1 77.4,10.1 Z M 67,6.7 h 10.7 c 3.2,0 5.6,0.7 7.4,2 1.7,1.3 2.6,3.2 2.6,5.6 0,1.9 -0.4,3.4 -1.3,4.5 -0.9,1.1 -2.2,1.8 -3.9,2.1 2.1,0.4 3.7,1.3 4.8,2.7 1.1,1.4 1.7,3.1 1.7,5.2 0,2.7 -0.9,4.8 -2.8,6.3 -1.9,1.5 -4.5,2.2 -8,2.2 H 67 Z"
       clip-path="url(#SVGID_2_)"
       id="path5638"
       inkscape:connector-curvature="0"
       style="fill:#ffffff" /><path
       class="st1"
       d="m 99.9,22.7 v 11.2 h 6.7 c 2.2,0 3.9,-0.5 5,-1.4 1.1,-0.9 1.6,-2.3 1.6,-4.2 0,-1.9 -0.5,-3.3 -1.6,-4.2 -1.1,-0.9 -2.8,-1.4 -5,-1.4 z m 0,-12.6 v 9.2 h 6.2 c 2,0 3.6,-0.4 4.6,-1.1 1,-0.8 1.5,-1.9 1.5,-3.5 0,-1.5 -0.5,-2.7 -1.5,-3.5 -1,-0.8 -2.5,-1.1 -4.6,-1.1 z M 95.7,6.7 h 10.7 c 3.2,0 5.6,0.7 7.4,2 1.7,1.3 2.6,3.2 2.6,5.6 0,1.9 -0.4,3.4 -1.3,4.5 -0.9,1.1 -2.2,1.8 -3.9,2.1 2.1,0.4 3.7,1.3 4.8,2.7 1.1,1.4 1.7,3.1 1.7,5.2 0,2.7 -0.9,4.8 -2.8,6.3 -1.9,1.5 -4.5,2.2 -8,2.2 H 95.7 Z"
       clip-path="url(#SVGID_2_)"
       id="path5640"
       inkscape:connector-curvature="0"
       style="fill:#ffffff" /><polygon
       class="st1"
       points="150.5,21 161.3,37.3 156.7,37.3 148.2,24.5 139.7,37.3 135.2,37.3 146,21.1 136.4,6.7 141,6.7 148.3,17.7 155.7,6.7 160.1,6.7 "
       clip-path="url(#SVGID_2_)"
       id="polygon5642"
       style="fill:#ffffff" /><rect
       x="124.3"
       y="6.6999998"
       class="st1"
       width="4.1999998"
       height="30.6"
       clip-path="url(#SVGID_2_)"
       id="rect5644"
       style="fill:#ffffff" /></g></g><g
   aria-label="PREMIUM PARTNER"
   id="text6202"
   style="font-size:16.6926px;line-height:1.25;letter-spacing:0px;word-spacing:0px;stroke-width:0.417314"
   transform="matrix(1.0281713,0,0,1,-0.16042115,0)"><path
     d="m 8.8493887,49.951494 q 2.3369643,0 3.4052903,0.918093 1.068327,0.918093 1.068327,2.587353 0,0.984863 -0.450701,1.852878 -0.434007,0.851323 -1.485641,1.385486 -1.034941,0.534164 -2.8210495,0.534164 H 7.1968212 V 61.87001 H 5.6944872 V 49.951494 Z m -0.1335408,1.28533 H 7.1968212 v 4.707313 h 1.2018672 q 1.7026456,0 2.5372756,-0.550856 0.83463,-0.550855 0.83463,-1.869571 0,-1.151789 -0.751167,-1.719338 -0.734475,-0.567548 -2.3035791,-0.567548 z"
     id="path4155" /><path
     d="m 19.081945,49.951494 q 2.220116,0 3.271749,0.851322 1.068327,0.83463 1.068327,2.537276 0,0.951478 -0.350545,1.585797 -0.350544,0.634318 -0.9014,1.018248 -0.534163,0.38393 -1.135097,0.584241 l 3.27175,5.341632 h -1.752723 l -2.88782,-4.924317 h -2.37035 V 61.87001 H 15.793502 V 49.951494 Z m -0.08346,1.302023 h -1.702646 v 4.423539 h 1.786109 q 1.452256,0 2.11996,-0.567549 0.667704,-0.584241 0.667704,-1.702645 0,-1.168482 -0.701089,-1.652567 -0.701089,-0.500778 -2.170038,-0.500778 z"
     id="path4157" /><path
     d="M 32.836642,61.87001 H 26.176295 V 49.951494 h 6.660347 v 1.318715 h -5.158013 v 3.72245 h 4.857547 v 1.302023 h -4.857547 v 4.256613 h 5.158013 z"
     id="path4159" /><path
     d="M 40.715546,61.87001 36.792785,51.420443 h -0.06677 q 0.05008,0.51747 0.08346,1.402178 0.03339,0.868015 0.03339,1.819493 V 61.87001 H 35.457377 V 49.951494 h 2.220116 l 3.672372,9.765171 h 0.06677 l 3.739143,-9.765171 h 2.203423 V 61.87001 H 45.87356 v -7.328051 q 0,-0.868015 0.03339,-1.719338 0.05008,-0.851323 0.08346,-1.385486 H 45.92364 L 41.950799,61.87001 Z"
     id="path4161" /><path
     d="m 53.952772,61.87001 h -4.306691 v -0.868015 l 1.402179,-0.317159 v -9.531475 l -1.402179,-0.333852 v -0.868015 h 4.306691 v 0.868015 l -1.402178,0.333852 v 9.531475 l 1.402178,0.317159 z"
     id="path4163" /><path
     d="m 65.320444,49.951494 v 7.711981 q 0,1.235253 -0.500778,2.236809 -0.500778,0.984863 -1.53572,1.569104 -1.034941,0.567548 -2.604045,0.567548 -2.236809,0 -3.388598,-1.201867 -1.15179,-1.21856 -1.15179,-3.204979 v -7.678596 h 1.502334 v 7.728674 q 0,1.452256 0.76786,2.253501 0.784552,0.801245 2.353657,0.801245 1.619182,0 2.336964,-0.851323 0.734474,-0.868015 0.734474,-2.220116 v -7.711981 z"
     id="path4165" /><path
     d="M 73.716836,61.87001 69.794074,51.420443 h -0.06677 q 0.05008,0.51747 0.08346,1.402178 0.03338,0.868015 0.03338,1.819493 V 61.87001 H 68.458666 V 49.951494 h 2.220116 l 3.672372,9.765171 h 0.06677 l 3.739142,-9.765171 H 80.36049 V 61.87001 h -1.485641 v -7.328051 q 0,-0.868015 0.03338,-1.719338 0.05008,-0.851323 0.08346,-1.385486 h -0.06677 L 74.952088,61.87001 Z"
     id="path4167" /><path
     d="m 91.093827,49.951494 q 2.336964,0 3.40529,0.918093 1.068327,0.918093 1.068327,2.587353 0,0.984863 -0.450701,1.852878 -0.434007,0.851323 -1.485641,1.385486 -1.034941,0.534164 -2.821049,0.534164 H 89.441259 V 61.87001 H 87.938925 V 49.951494 Z m -0.133541,1.28533 h -1.519027 v 4.707313 h 1.201868 q 1.702645,0 2.537275,-0.550856 0.83463,-0.550855 0.83463,-1.869571 0,-1.151789 -0.751167,-1.719338 -0.734475,-0.567548 -2.303579,-0.567548 z"
     id="path4169" /><path
     d="m 104.68161,61.87001 -1.43556,-3.689064 h -4.724005 l -1.418871,3.689064 h -1.519027 l 4.657233,-11.968594 h 1.3521 l 4.64055,11.968594 z m -1.88626,-5.024472 -1.33541,-3.605602 q -0.0501,-0.133541 -0.16692,-0.484085 -0.11685,-0.350545 -0.2337,-0.717782 -0.10016,-0.38393 -0.16693,-0.584241 -0.13354,0.51747 -0.28377,1.018248 -0.13354,0.484086 -0.2337,0.76786 l -1.352097,3.605602 z"
     id="path4171" /><path
     d="m 111.15834,49.951494 q 2.22011,0 3.27175,0.851322 1.06832,0.83463 1.06832,2.537276 0,0.951478 -0.35054,1.585797 -0.35055,0.634318 -0.9014,1.018248 -0.53417,0.38393 -1.1351,0.584241 l 3.27175,5.341632 h -1.75272 l -2.88782,-4.924317 h -2.37035 v 4.924317 h -1.50234 V 49.951494 Z m -0.0835,1.302023 h -1.70264 v 4.423539 h 1.78611 q 1.45225,0 2.11996,-0.567549 0.6677,-0.584241 0.6677,-1.702645 0,-1.168482 -0.70109,-1.652567 -0.70109,-0.500778 -2.17004,-0.500778 z"
     id="path4173" /><path
     d="m 122.02522,61.87001 h -1.50233 V 51.270209 h -3.72245 v -1.318715 h 8.93054 v 1.318715 h -3.70576 z"
     id="path4175" /><path
     d="m 136.98179,61.87001 h -1.75273 l -6.37657,-9.898712 h -0.0668 q 0.0334,0.584241 0.0835,1.452257 0.0501,0.868015 0.0501,1.786108 V 61.87001 H 127.5338 V 49.951494 h 1.73603 l 6.35989,9.865327 h 0.0668 q -0.0167,-0.267082 -0.0501,-0.801245 -0.0167,-0.534163 -0.0501,-1.15179 -0.0167,-0.634318 -0.0167,-1.185174 v -6.727118 h 1.40218 z"
     id="path4177" /><path
     d="m 146.8805,61.87001 h -6.66035 V 49.951494 h 6.66035 v 1.318715 h -5.15801 v 3.72245 h 4.85754 v 1.302023 h -4.85754 v 4.256613 h 5.15801 z"
     id="path4179" /><path
     d="m 152.78968,49.951494 q 2.22011,0 3.27175,0.851322 1.06832,0.83463 1.06832,2.537276 0,0.951478 -0.35054,1.585797 -0.35055,0.634318 -0.9014,1.018248 -0.53417,0.38393 -1.1351,0.584241 l 3.27175,5.341632 h -1.75272 l -2.88782,-4.924317 h -2.37035 v 4.924317 h -1.50234 V 49.951494 Z m -0.0835,1.302023 h -1.70264 v 4.423539 h 1.78611 q 1.45225,0 2.11996,-0.567549 0.6677,-0.584241 0.6677,-1.702645 0,-1.168482 -0.70109,-1.652567 -0.70109,-0.500778 -2.17004,-0.500778 z"
     id="path4181" /></g>
</svg>
